<?xml version="1.0" encoding="utf-8"?>
<!-- Generator: Adobe Illustrator 26.3.1, SVG Export Plug-In . SVG Version: 6.00 Build 0)  -->
<svg version="1.1" id="Layer_1" xmlns="http://www.w3.org/2000/svg" xmlns:xlink="http://www.w3.org/1999/xlink" x="0px" y="0px"
	 viewBox="0 0 146.2 149.2" style="enable-background:new 0 0 146.2 149.2;" xml:space="preserve">
<style type="text/css">
	.st0{fill:none;stroke:#44FFA1;}
	.st1{opacity:0.75;fill:none;stroke:#44FFA1;enable-background:new    ;}
	.st2{opacity:0.5;fill:none;stroke:#44FFA1;enable-background:new    ;}
	.st3{opacity:0.25;fill:none;stroke:#44FFA1;enable-background:new    ;}
</style>
<g transform="rotate(-56 110.742 58.398)">
	
		<ellipse transform="matrix(-1 2.368241e-06 -2.368241e-06 -1 66.7596 72.4201)" class="st0" cx="33.4" cy="36.2" rx="27.5" ry="55.5"/>
	
		<ellipse transform="matrix(-1 2.345466e-06 -2.345466e-06 -1 110.0256 72.1861)" class="st0" cx="55" cy="36.1" rx="27.5" ry="55.5"/>
	
		<ellipse transform="matrix(-1 2.368241e-06 -2.368241e-06 -1 150.5156 71.412)" class="st1" cx="75.3" cy="35.7" rx="27.5" ry="55.5"/>
	
		<ellipse transform="matrix(-1 2.368241e-06 -2.368241e-06 -1 193.7816 71.178)" class="st2" cx="96.9" cy="35.6" rx="27.5" ry="55.5"/>
	
		<ellipse transform="matrix(-1 2.368241e-06 -2.368241e-06 -1 238.1655 72.602)" class="st3" cx="119.1" cy="36.3" rx="27.5" ry="55.5"/>
</g>
</svg>
