<?xml version="1.0" encoding="utf-8"?>
<!-- Generator: Adobe Illustrator 26.3.1, SVG Export Plug-In . SVG Version: 6.00 Build 0)  -->
<svg version="1.1" id="Layer_1" xmlns="http://www.w3.org/2000/svg" xmlns:xlink="http://www.w3.org/1999/xlink" x="0px" y="0px"
	 viewBox="0 0 282.2 272.8" style="enable-background:new 0 0 282.2 272.8;" xml:space="preserve">
<style type="text/css">
	.st0{fill:none;stroke:#44FFA1;}
	.st1{opacity:0.75;fill:none;stroke:#44FFA1;enable-background:new    ;}
	.st2{opacity:0.5;fill:none;stroke:#44FFA1;enable-background:new    ;}
	.st3{opacity:0.25;fill:none;stroke:#44FFA1;enable-background:new    ;}
</style>
<g transform="rotate(-152 159.204 128.626)">
	
		<ellipse transform="matrix(-5.413674e-06 -1 1 -5.413674e-06 -22.8597 203.0483)" class="st0" cx="90.1" cy="113" rx="106.5" ry="53.5"/>
	
		<ellipse transform="matrix(-5.389719e-06 -1 1 -5.389719e-06 17.9905 243.6602)" class="st0" cx="130.8" cy="112.8" rx="106.5" ry="53.5"/>
	
		<ellipse transform="matrix(-5.413674e-06 -1 1 -5.413674e-06 57.4027 283.8062)" class="st1" cx="170.6" cy="113.2" rx="106.5" ry="52.5"/>
	
		<ellipse transform="matrix(-5.389607e-06 -1 1 -5.389607e-06 97.887 325.758)" class="st2" cx="211.8" cy="113.9" rx="106.5" ry="53.5"/>
	
		<ellipse transform="matrix(-5.436999e-06 -1 1 -5.436999e-06 140.0752 366.736)" class="st3" cx="253.4" cy="113.3" rx="106.5" ry="52.5"/>
</g>
</svg>
